<?xml version="1.0" encoding="UTF-8"?>
<svg width="1200pt" height="1200pt" version="1.1" viewBox="0 0 1200 1200" xmlns="http://www.w3.org/2000/svg">
 <g fill="#c362dd">
  <path d="m1023.5 742.44-51.242-42.242c-6.9492-32.531-19.246-64.477-42.191-34.262-12.395 29.797-20.594 49.5-39.539 79.297-4.1289 6.6719-8.207 13.367-12.254 20.102-73.969-21.961-124.62-55.262-181.67-116.52 5.3633-12.086 1.4531-26.746-18.336-35.844-37.066-17.051-113.39-41.316-134.24-77.016-27.84-47.688-51.672-158.7-149.5-158.07-42.719 0.27734-112.26 70.906-161.34 102.76-22.836 14.82-22.105 54.695-26.137 78.516-5.2812 31.199-10.559 62.387-15.863 93.574-5.2695 31.055 20.844 45.121 46.5 31.234 14.062-7.5977 20.219-26.891 22.668-41.375 6.3477-37.402 14.809-66.625 21.156-104.02l45.086-36.602c-15.312 91.57-29.172 145.68-43.223 269.12-4.1523 36.527-9.168 73.945-17.773 85.176-27.863 36.312-49.176 72.023-77.438 108.02-39.984 50.953 31.199 90.098 67.801 43.441 25.031-31.906 50.062-63.805 75.098-95.711 35.496-45.238 33.973-119.02 43.223-174.31 28.078 60.637 56.137 121.25 84.203 181.87 12.996 28.066 26.004 56.148 39 84.227 24.277 52.414 99.086 25.262 73.586-29.746-36.18-78.121-65.004-156.24-101.18-234.34-11.281-24.395-28.992-48.156-25.141-74.688 6.3125-43.465 12.625-86.914 18.938-130.37 10.43 17.867 19.523 42.324 33.527 57.445 9.9492 17.039 47.449 27.742 64.633 35.641 26.82 12.348 53.676 24.695 80.508 37.031 15.684 7.2227 30.73 5.0039 41.363-1.6445 56.508 60.289 108.67 95.027 180.9 117.94-12.742 8.1953-30.828 7.7539-45.406 10.812-19.234 4.0312-48.289 10.129-69.527 10.129-17.016 0-19.441-3.9375-19.453-3.9844-3.5742-7.2461-6.5898-15.301-9.4922-23.113-7.7031-20.652-14.965-40.152-32.652-40.152-2.4961 0-5.0625 0.44531-7.6328 1.332-0.67188 0.22656-1.3086 0.52734-1.9219 0.89844-16.645 10.297-8.7852 30.875-0.46875 52.668 2.5547 6.6836 5.1836 13.547 7.332 20.508-19.309 36.973-18.254 117.06-17.305 188-3.1328 25.523 1.9336 33.492 27.395 33.289 31.789-0.19141 27.238-15.109 26.594-42.406-0.19141-24.07 5.1719-41.258 16.355-52.547 12.637-12.73 33.66-18.672 66.121-18.672 16.465 0 34.367 1.4648 51.684 2.8672 12.898 1.0547 26.137 2.1367 38.82 2.6172 0 10.117 0.12109 23.699 0.25391 38.867 0.16797 18.312 0.33594 38.965 0.33594 58.645 0 15.445 38.844 10.715 48.719 10.715 15.672 0 9.7422-34.512 9.625-45.59-1.1055-116.75 8.7734-169.73 16.273-178.85 12.863 9 25.992 13.754 38.062 13.754 17.195 0 31.066-9.5039 36.215-24.793 4.8711-14.516 1.8242-36.27-21.047-53.645z"/>
  <path d="m516.43 280.45c0 43.906-35.594 79.5-79.5 79.5-43.91 0-79.5-35.594-79.5-79.5s35.59-79.5 79.5-79.5c43.906 0 79.5 35.594 79.5 79.5"/>
  <path d="m1020.7 42h-835.38c-79.031 0-143.32 64.285-143.32 143.3v835.37c0 79.043 64.285 143.33 143.32 143.33h835.38c79.02 0 143.3-64.285 143.3-143.32v-835.38c0-79.02-64.285-143.3-143.3-143.3zm95.352 978.68c0 52.598-42.77 95.363-95.352 95.363h-835.38c-52.586 0-95.363-42.77-95.363-95.363v-835.38c0-52.586 42.781-95.363 95.363-95.363h835.38c52.586 0 95.352 42.781 95.352 95.363z"/>
 </g>
</svg>
